<?xml version="1.0" encoding="UTF-8"?>
<!-- Generator: Adobe Illustrator 24.1.0, SVG Export Plug-In . SVG Version: 6.00 Build 0)  -->
<svg version="1.1" id="Layer_1" xmlns="http://www.w3.org/2000/svg" xmlns:xlink="http://www.w3.org/1999/xlink" x="0px" y="0px" viewBox="0 0 363.06 80.67" style="enable-background:new 0 0 363.06 80.67;" xml:space="preserve">
<style type="text/css">
	.st0{clip-path:url(#SVGID_2_);fill:none;}
	.st1{clip-path:url(#SVGID_2_);fill:#63003D;}
	.st2{fill:#00AEEF;}
	.st3{fill:#0B3B60;}
</style>
<g>
	<defs>
		<rect id="SVGID_1_" width="363.06" height="80.67"/>
	</defs>
	<clipPath id="SVGID_2_">
		<use xlink:href="#SVGID_1_" style="overflow:visible;"/>
	</clipPath>
	<rect y="0" class="st0" width="178.56" height="80.67"/>
	<path class="st1" d="M160.32,13.93c-2.35,0-4.25,1.9-4.25,4.25c0,2.35,1.9,4.25,4.25,4.25c2.34,0,4.24-1.9,4.24-4.25   C164.56,15.83,162.66,13.93,160.32,13.93"/>
	<path class="st1" d="M151.17,28.8c1.45,0,2.63-1.18,2.63-2.63c0-1.45-1.18-2.62-2.63-2.62c-1.45,0-2.63,1.17-2.63,2.62   C148.54,27.62,149.72,28.8,151.17,28.8"/>
	<rect x="52.5" y="33.26" class="st1" width="2.82" height="15.9"/>
	<path class="st1" d="M79.79,40.09c0.39-2.78,2.28-4.7,4.69-4.7c2.98,0,4.33,2.37,4.61,4.7H79.79z M84.54,32.93   c-4.36,0-7.64,3.57-7.64,8.29s3.41,8.29,7.94,8.29c2.67,0,4.69-0.92,6.53-2.97l0.18-0.2l-1.82-1.63l-0.18,0.19   c-1.36,1.42-2.84,2.09-4.65,2.09c-2.69,0-4.71-1.86-5.11-4.67h12.13l0.03-0.24c0.03-0.28,0.03-0.53,0.03-0.74   C91.97,36.31,88.99,32.93,84.54,32.93"/>
	<path class="st1" d="M25.39,49.16h2.8v-15.9h-2.8v9.07c0,2.68-1.78,4.55-4.34,4.55c-2.49,0-3.98-1.63-3.98-4.37v-9.24h-2.82v9.81   c0,3.9,2.42,6.42,6.15,6.42c2.09,0,3.73-0.79,4.99-2.42V49.16z"/>
	<path class="st1" d="M44.53,39.91v9.25h2.82v-9.81c0-3.9-2.42-6.42-6.15-6.42c-2.09,0-3.76,0.81-4.99,2.41v-2.08h-2.82v15.9h2.82   v-9.07c0-2.68,1.78-4.55,4.34-4.55C43.04,35.55,44.53,37.18,44.53,39.91"/>
	<polygon class="st1" points="68.31,49.28 75.23,33.26 72.18,33.26 67.15,45.57 62.16,33.26 59.05,33.26 65.94,49.28  "/>
	<path class="st1" d="M98.87,42.77c0-4.12,2.29-6.78,5.83-6.78h0.45V33l-0.26-0.01c-2.47-0.1-4.66,1.18-6.02,3.45v-3.18h-2.82v15.9   h2.82V42.77z"/>
	<path class="st1" d="M138.07,49.43c1.07,0,1.99-0.22,2.89-0.69l0.15-0.07v-2.55l-0.38,0.18c-0.75,0.36-1.36,0.51-2.11,0.51   c-1.58,0-2.32-0.73-2.32-2.29v-8.71h4.88v-2.56h-4.88v-5.25l-2.82,1.56v3.69h-2.98v2.56h2.98v9.01   C133.46,47.79,135.1,49.43,138.07,49.43"/>
	<path class="st1" d="M151.28,35.4c2.98,0,4.32,2.37,4.61,4.7h-9.3C146.97,37.31,148.87,35.4,151.28,35.4 M151.63,49.52   c2.67,0,4.69-0.92,6.53-2.97l0.18-0.2l-1.82-1.63l-0.18,0.19c-1.36,1.42-2.84,2.09-4.65,2.09c-2.69,0-4.71-1.86-5.11-4.67h12.12   l0.03-0.24c0.03-0.28,0.03-0.53,0.03-0.74c0-5.03-2.99-8.41-7.43-8.41c-4.35,0-7.64,3.57-7.64,8.29S147.11,49.52,151.63,49.52"/>
	<path class="st1" d="M114.64,39.87l-0.06-0.02c-1.91-0.58-3.71-1.13-3.71-2.43c0-1.17,1.09-1.96,2.71-1.96   c1.4,0,2.96,0.51,4.4,1.44l0.23,0.15l1.32-2.18l-0.21-0.14c-1.65-1.09-3.77-1.74-5.68-1.74c-3.24,0-5.5,1.92-5.5,4.67v0.06   c0,3.1,3.05,3.97,5.28,4.6c2.06,0.58,3.64,1.12,3.64,2.51c0,1.3-1.17,2.17-2.91,2.17c-1.71,0-3.5-0.66-5.16-1.91l-0.22-0.16   l-1.46,2.06l0.19,0.16c1.77,1.43,4.27,2.32,6.53,2.32c3.43,0,5.74-1.96,5.74-4.88v-0.06C119.77,41.4,116.68,40.48,114.64,39.87"/>
	<rect x="124.28" y="33.26" class="st1" width="2.82" height="15.9"/>
	<path class="st1" d="M29.69,61.42l1.61-3.93l1.61,3.93H29.69z M30.11,54.29l-5.2,12.21h2.72l1.11-2.72h5.12l1.11,2.72h2.79   l-5.19-12.21H30.11z"/>
	<path class="st1" d="M138.76,61.42l1.61-3.93l1.61,3.93H138.76z M139.18,54.29l-5.2,12.21h2.72l1.11-2.72h5.12l1.11,2.72h2.79   l-5.2-12.21H139.18z"/>
	<polygon class="st1" points="152.85,59.24 149.96,54.38 146.85,54.38 151.5,61.72 151.5,66.5 154.17,66.5 154.17,61.67    158.83,54.38 155.8,54.38  "/>
	<path class="st1" d="M21.2,58.65c0,1.04-0.78,1.84-2.11,1.84h-2.11v-3.71h2.06c1.33,0,2.16,0.64,2.16,1.83V58.65z M19.26,54.38   H14.3V66.5h2.67v-3.63H19c2.72,0,4.9-1.45,4.9-4.26v-0.03C23.9,56.09,22.15,54.38,19.26,54.38"/>
	<path class="st1" d="M114.7,64.25c-2.08,0-3.52-1.73-3.52-3.81V60.4c0-2.08,1.47-3.77,3.52-3.77c1.21,0,2.16,0.52,3.1,1.37   l1.7-1.96c-1.13-1.11-2.49-1.87-4.78-1.87c-3.72,0-6.32,2.82-6.32,6.27v0.03c0,3.48,2.65,6.23,6.22,6.23   c2.34,0,3.72-0.83,4.97-2.17l-1.7-1.71C116.93,63.69,116.08,64.25,114.7,64.25"/>
	<path class="st1" d="M87.53,59.24c-2.09-0.54-2.62-0.8-2.62-1.59v-0.03c0-0.59,0.54-1.06,1.56-1.06c1.02,0,2.08,0.45,3.15,1.2   l1.39-2.01c-1.23-0.99-2.74-1.54-4.5-1.54c-2.48,0-4.24,1.45-4.24,3.65v0.03c0,2.4,1.58,3.08,4.02,3.71   c2.03,0.52,2.44,0.87,2.44,1.54v0.04c0,0.71-0.66,1.14-1.75,1.14c-1.39,0-2.53-0.57-3.62-1.47l-1.58,1.89   c1.45,1.3,3.31,1.94,5.14,1.94c2.62,0,4.45-1.35,4.45-3.76v-0.03C91.37,60.77,89.98,59.88,87.53,59.24"/>
	<polygon class="st1" points="125.67,54.38 123.01,54.38 123.01,66.5 131.72,66.5 131.72,64.07 125.67,64.07  "/>
	<path class="st1" d="M98.47,61.42l1.61-3.93l1.61,3.93H98.47z M98.89,54.29L93.69,66.5h2.72l1.11-2.72h5.13l1.11,2.72h2.79   l-5.2-12.21H98.89z"/>
	<rect x="73.66" y="59.87" class="st1" width="5.33" height="2.53"/>
	<path class="st1" d="M48.34,58.55c0,1.02-0.75,1.72-2.04,1.72h-2.7v-3.48h2.65c1.3,0,2.1,0.59,2.1,1.73V58.55z M51.04,58.41v-0.03   c0-2.49-1.72-4-4.57-4h-5.54V66.5h2.67v-3.88h2.1l2.6,3.88h3.12l-2.96-4.33C49.99,61.6,51.04,60.37,51.04,58.41"/>
	<rect x="54.87" y="54.38" class="st1" width="2.67" height="12.12"/>
	<path class="st1" d="M66.78,59.24c-2.1-0.54-2.62-0.8-2.62-1.59v-0.03c0-0.59,0.54-1.06,1.56-1.06c1.02,0,2.08,0.45,3.15,1.2   l1.39-2.01c-1.23-0.99-2.74-1.54-4.5-1.54c-2.47,0-4.24,1.45-4.24,3.65v0.03c0,2.4,1.57,3.08,4.02,3.71   c2.03,0.52,2.44,0.87,2.44,1.54v0.04c0,0.71-0.66,1.14-1.75,1.14c-1.39,0-2.53-0.57-3.62-1.47l-1.58,1.89   c1.45,1.3,3.31,1.94,5.14,1.94c2.61,0,4.45-1.35,4.45-3.76v-0.03C70.63,60.77,69.24,59.88,66.78,59.24"/>
	<path class="st1" d="M178.56,66.51c-0.07,0-0.14-0.01-0.2-0.04c-0.06-0.02-0.11-0.06-0.16-0.11c-0.05-0.04-0.09-0.1-0.11-0.16   c-0.03-0.06-0.04-0.13-0.04-0.19c0-0.14,0.06-0.27,0.15-0.36c0.14-0.14,0.36-0.18,0.55-0.11c0.06,0.03,0.11,0.07,0.16,0.11   c0.09,0.09,0.15,0.22,0.15,0.36c0,0.13-0.06,0.26-0.15,0.35C178.81,66.46,178.69,66.51,178.56,66.51"/>
	<path class="st1" d="M178.06,20.78c0-0.28,0.23-0.5,0.5-0.5c0.28,0,0.51,0.22,0.51,0.5s-0.23,0.5-0.51,0.5   C178.29,21.28,178.06,21.06,178.06,20.78 M178.06,22.74c0-0.27,0.23-0.5,0.5-0.5c0.28,0,0.51,0.23,0.51,0.5   c0,0.28-0.23,0.51-0.51,0.51C178.29,23.25,178.06,23.02,178.06,22.74 M178.06,24.71c0-0.28,0.23-0.5,0.5-0.5   c0.28,0,0.51,0.22,0.51,0.5s-0.23,0.5-0.51,0.5C178.29,25.21,178.06,24.99,178.06,24.71 M178.06,26.68c0-0.28,0.23-0.51,0.5-0.51   c0.28,0,0.51,0.23,0.51,0.51c0,0.27-0.23,0.5-0.51,0.5C178.29,27.18,178.06,26.95,178.06,26.68 M178.06,28.64   c0-0.27,0.23-0.5,0.5-0.5c0.28,0,0.51,0.23,0.51,0.5c0,0.28-0.23,0.5-0.51,0.5C178.29,29.14,178.06,28.92,178.06,28.64    M178.06,30.61c0-0.28,0.23-0.5,0.5-0.5c0.28,0,0.51,0.22,0.51,0.5c0,0.27-0.23,0.5-0.51,0.5   C178.29,31.11,178.06,30.88,178.06,30.61 M178.06,32.58c0-0.28,0.23-0.51,0.5-0.51c0.28,0,0.51,0.23,0.51,0.51   c0,0.27-0.23,0.5-0.51,0.5C178.29,33.08,178.06,32.85,178.06,32.58 M178.06,34.54c0-0.28,0.23-0.5,0.5-0.5   c0.28,0,0.51,0.22,0.51,0.5c0,0.28-0.23,0.5-0.51,0.5C178.29,35.04,178.06,34.82,178.06,34.54 M178.06,36.51   c0-0.28,0.23-0.51,0.5-0.51c0.28,0,0.51,0.23,0.51,0.51c0,0.27-0.23,0.5-0.51,0.5C178.29,37.01,178.06,36.78,178.06,36.51    M178.06,38.47c0-0.28,0.23-0.5,0.5-0.5c0.28,0,0.51,0.22,0.51,0.5c0,0.28-0.23,0.5-0.51,0.5   C178.29,38.97,178.06,38.75,178.06,38.47 M178.06,40.44c0-0.28,0.23-0.5,0.5-0.5c0.28,0,0.51,0.22,0.51,0.5   c0,0.28-0.23,0.5-0.51,0.5C178.29,40.94,178.06,40.72,178.06,40.44 M178.06,42.4c0-0.27,0.23-0.5,0.5-0.5   c0.28,0,0.51,0.23,0.51,0.5c0,0.28-0.23,0.51-0.51,0.51C178.29,42.91,178.06,42.68,178.06,42.4 M178.06,44.37   c0-0.28,0.23-0.5,0.5-0.5c0.28,0,0.51,0.22,0.51,0.5c0,0.28-0.23,0.5-0.51,0.5C178.29,44.87,178.06,44.65,178.06,44.37    M178.06,46.34c0-0.28,0.23-0.51,0.5-0.51c0.28,0,0.51,0.23,0.51,0.51c0,0.27-0.23,0.5-0.51,0.5   C178.29,46.84,178.06,46.61,178.06,46.34 M178.06,48.3c0-0.27,0.23-0.5,0.5-0.5c0.28,0,0.51,0.23,0.51,0.5   c0,0.28-0.23,0.5-0.51,0.5C178.29,48.8,178.06,48.58,178.06,48.3 M178.06,50.27c0-0.28,0.23-0.5,0.5-0.5c0.28,0,0.51,0.22,0.51,0.5   c0,0.27-0.23,0.5-0.51,0.5C178.29,50.77,178.06,50.54,178.06,50.27 M178.06,52.23c0-0.27,0.23-0.5,0.5-0.5   c0.28,0,0.51,0.23,0.51,0.5c0,0.28-0.23,0.51-0.51,0.51C178.29,52.74,178.06,52.51,178.06,52.23 M178.06,54.2   c0-0.28,0.23-0.5,0.5-0.5c0.28,0,0.51,0.22,0.51,0.5c0,0.28-0.23,0.5-0.51,0.5C178.29,54.7,178.06,54.48,178.06,54.2 M178.06,56.17   c0-0.28,0.23-0.51,0.5-0.51c0.28,0,0.51,0.23,0.51,0.51c0,0.27-0.23,0.5-0.51,0.5C178.29,56.67,178.06,56.44,178.06,56.17    M178.06,58.13c0-0.28,0.23-0.5,0.5-0.5c0.28,0,0.51,0.22,0.51,0.5c0,0.28-0.23,0.5-0.51,0.5   C178.29,58.63,178.06,58.41,178.06,58.13 M178.06,60.1c0-0.28,0.23-0.51,0.5-0.51c0.28,0,0.51,0.23,0.51,0.51   c0,0.27-0.23,0.5-0.51,0.5C178.29,60.6,178.06,60.37,178.06,60.1 M178.06,62.06c0-0.27,0.23-0.5,0.5-0.5c0.28,0,0.51,0.23,0.51,0.5   c0,0.28-0.23,0.51-0.51,0.51C178.29,62.57,178.06,62.34,178.06,62.06 M178.06,64.03c0-0.28,0.23-0.5,0.5-0.5   c0.28,0,0.51,0.22,0.51,0.5c0,0.28-0.23,0.5-0.51,0.5C178.29,64.53,178.06,64.31,178.06,64.03"/>
	<path class="st1" d="M178.56,19.31c-0.13,0-0.26-0.05-0.35-0.14c-0.09-0.1-0.15-0.22-0.15-0.36c0-0.13,0.06-0.26,0.15-0.35   c0.04-0.05,0.1-0.09,0.16-0.11c0.12-0.05,0.26-0.05,0.39,0c0.06,0.02,0.11,0.06,0.16,0.11c0.09,0.09,0.15,0.22,0.15,0.35   c0,0.14-0.06,0.26-0.15,0.36C178.82,19.26,178.69,19.31,178.56,19.31"/>
</g>
<g>
	<path class="st2" d="M246.58,60.39v-6.44h2.65c0.33,0,0.56,0,0.69,0.01c0.35,0.02,0.62,0.07,0.83,0.17   c0.21,0.09,0.38,0.24,0.51,0.45c0.2,0.31,0.31,0.79,0.31,1.45c0,0.61-0.08,1.05-0.23,1.34c-0.19,0.36-0.5,0.58-0.93,0.67   c-0.13,0.03-0.53,0.04-1.2,0.06h-1.64v2.29H246.58z M247.57,57.25h1.55c0.51,0,0.84-0.03,1.01-0.1c0.2-0.08,0.33-0.24,0.39-0.48   c0.03-0.12,0.05-0.3,0.05-0.55c0-0.42-0.03-0.71-0.08-0.89c-0.09-0.26-0.32-0.4-0.7-0.42c-0.07,0-0.24-0.01-0.49-0.01h-1.72V57.25z   "/>
	<path class="st2" d="M256.9,59.09h-3.01l-0.44,1.3h-1.04l2.24-6.43h1.44l2.28,6.43h-1.02L256.9,59.09z M256.65,58.34l-1.26-3.61   l-1.24,3.61H256.65z"/>
	<path class="st2" d="M260.1,60.39v-6.44h3.12c0.59,0,1.03,0.09,1.33,0.26c0.29,0.17,0.48,0.42,0.57,0.77   c0.06,0.21,0.09,0.49,0.09,0.85c0,0.44-0.04,0.78-0.1,1c-0.1,0.32-0.31,0.54-0.61,0.65c-0.1,0.04-0.24,0.08-0.42,0.11v0.03   c0.36,0.03,0.62,0.14,0.8,0.35c0.17,0.21,0.26,0.51,0.26,0.9v1.52h-0.99v-1.31c0-0.4-0.09-0.68-0.27-0.84   c-0.19-0.15-0.46-0.22-0.82-0.21h-1.95v2.36H260.1z M261.09,57.18h1.9c0.42,0,0.72-0.06,0.9-0.19c0.15-0.11,0.24-0.26,0.28-0.47   c0.02-0.09,0.03-0.24,0.03-0.46c0-0.4-0.02-0.67-0.07-0.81c-0.08-0.23-0.27-0.37-0.58-0.42c-0.12-0.02-0.25-0.03-0.4-0.03h-2.07   V57.18z"/>
	<rect x="267.33" y="53.96" class="st2" width="0.99" height="6.43"/>
	<path class="st2" d="M275.21,55.77h-0.97c0-0.37-0.04-0.61-0.13-0.75c-0.09-0.14-0.25-0.23-0.48-0.28   c-0.15-0.03-0.37-0.04-0.68-0.04c-0.41,0-0.71,0.01-0.88,0.04c-0.18,0.02-0.32,0.07-0.43,0.14c-0.2,0.12-0.3,0.39-0.3,0.81   c0,0.28,0.04,0.49,0.12,0.64c0.09,0.18,0.31,0.28,0.64,0.32c0.1,0.01,0.42,0.03,0.96,0.06c0.58,0.03,0.97,0.06,1.19,0.11   c0.46,0.09,0.77,0.31,0.94,0.65c0.11,0.22,0.16,0.57,0.16,1.04c0,0.38-0.03,0.69-0.08,0.92c-0.06,0.23-0.15,0.41-0.28,0.55   c-0.24,0.25-0.58,0.4-1.03,0.44c-0.32,0.03-0.71,0.05-1.17,0.05c-0.74,0-1.24-0.04-1.51-0.12c-0.54-0.17-0.85-0.58-0.93-1.24   c-0.01-0.14-0.03-0.38-0.03-0.71h0.97v0.15c0,0.28,0.03,0.5,0.08,0.65c0.05,0.15,0.13,0.26,0.25,0.33   c0.12,0.08,0.29,0.12,0.52,0.13c0.23,0.01,0.5,0.01,0.79,0.01c0.4,0,0.7-0.02,0.87-0.06c0.18-0.04,0.31-0.11,0.4-0.22   c0.11-0.13,0.17-0.42,0.17-0.88c0-0.24-0.03-0.43-0.09-0.55c-0.09-0.18-0.29-0.28-0.6-0.32c-0.09-0.01-0.41-0.03-0.98-0.07   c-0.55-0.03-0.9-0.06-1.04-0.08c-0.49-0.07-0.84-0.25-1.05-0.55c-0.18-0.25-0.27-0.64-0.27-1.18c0-0.73,0.17-1.22,0.5-1.47   c0.26-0.19,0.59-0.3,1-0.34c0.3-0.03,0.63-0.04,0.99-0.04c0.62,0,1.06,0.03,1.32,0.09c0.46,0.11,0.77,0.35,0.92,0.73   c0.09,0.22,0.13,0.52,0.13,0.9V55.77z"/>
	<polygon class="st2" points="276.75,57.55 278.81,57.55 278.81,58.38 276.74,58.38  "/>
	<path class="st2" d="M285.11,55.77h-0.97c0-0.37-0.04-0.61-0.13-0.75c-0.09-0.14-0.25-0.23-0.48-0.28   c-0.15-0.03-0.37-0.04-0.68-0.04c-0.41,0-0.71,0.01-0.88,0.04c-0.18,0.02-0.32,0.07-0.43,0.14c-0.2,0.12-0.3,0.39-0.3,0.81   c0,0.28,0.04,0.49,0.12,0.64c0.09,0.18,0.31,0.28,0.64,0.32c0.1,0.01,0.42,0.03,0.96,0.06c0.58,0.03,0.97,0.06,1.19,0.11   c0.46,0.09,0.77,0.31,0.94,0.65c0.11,0.22,0.17,0.57,0.17,1.04c0,0.38-0.03,0.69-0.09,0.92c-0.06,0.23-0.15,0.41-0.28,0.55   c-0.24,0.25-0.58,0.4-1.03,0.44c-0.32,0.03-0.71,0.05-1.17,0.05c-0.74,0-1.24-0.04-1.51-0.12c-0.54-0.17-0.85-0.58-0.93-1.24   c-0.02-0.14-0.03-0.38-0.03-0.71h0.97v0.15c0,0.28,0.03,0.5,0.08,0.65c0.05,0.15,0.13,0.26,0.25,0.33   c0.12,0.08,0.29,0.12,0.52,0.13c0.24,0.01,0.5,0.01,0.79,0.01c0.4,0,0.7-0.02,0.87-0.06c0.18-0.04,0.31-0.11,0.41-0.22   c0.11-0.13,0.17-0.42,0.17-0.88c0-0.24-0.03-0.43-0.09-0.55c-0.09-0.18-0.29-0.28-0.6-0.32c-0.09-0.01-0.41-0.03-0.98-0.07   c-0.55-0.03-0.9-0.06-1.04-0.08c-0.49-0.07-0.84-0.25-1.05-0.55c-0.18-0.25-0.27-0.64-0.27-1.18c0-0.73,0.17-1.22,0.49-1.47   c0.26-0.19,0.59-0.3,1-0.34c0.3-0.03,0.63-0.04,0.99-0.04c0.62,0,1.06,0.03,1.32,0.09c0.46,0.11,0.77,0.35,0.91,0.73   c0.09,0.22,0.13,0.52,0.13,0.9V55.77z"/>
	<path class="st2" d="M291.03,59.09h-3.01l-0.44,1.3h-1.04l2.24-6.43h1.44l2.28,6.43h-1.02L291.03,59.09z M290.78,58.34l-1.26-3.61   l-1.24,3.61H290.78z"/>
	<path class="st2" d="M298.09,58.16h0.98c0,0.11,0,0.19,0,0.22c0,0.58-0.05,0.99-0.15,1.22c-0.19,0.43-0.57,0.69-1.13,0.78   c-0.25,0.04-0.72,0.06-1.41,0.06c-0.55,0-0.95-0.03-1.22-0.08c-0.27-0.05-0.5-0.15-0.7-0.3c-0.38-0.29-0.6-0.8-0.66-1.52   c-0.03-0.44-0.05-1.06-0.05-1.83c0-0.67,0.03-1.16,0.1-1.49c0.09-0.44,0.34-0.78,0.75-1.02c0.28-0.16,0.65-0.26,1.14-0.29   c0.22-0.02,0.59-0.02,1.11-0.02c0.56,0,0.96,0.04,1.19,0.11c0.52,0.17,0.83,0.56,0.92,1.17c0.02,0.14,0.04,0.42,0.05,0.83h-0.98   c0-0.09-0.01-0.15-0.01-0.18c0-0.27-0.03-0.47-0.07-0.61c-0.04-0.14-0.11-0.24-0.21-0.31c-0.15-0.11-0.49-0.17-1.01-0.17   c-0.76,0-1.25,0.05-1.48,0.15c-0.21,0.09-0.34,0.28-0.41,0.58c-0.04,0.17-0.06,0.43-0.06,0.8c0,0.68,0.01,1.28,0.02,1.79   c0.02,0.71,0.14,1.16,0.38,1.33c0.18,0.14,0.6,0.21,1.24,0.21c0.79,0,1.28-0.08,1.46-0.24c0.15-0.14,0.22-0.41,0.22-0.83   C298.1,58.44,298.1,58.32,298.09,58.16"/>
	<polygon class="st2" points="301.97,53.96 301.97,59.5 305.12,59.5 305.12,60.39 300.98,60.39 300.98,53.96  "/>
	<path class="st2" d="M310.98,59.09h-3.01l-0.44,1.3h-1.04l2.24-6.43h1.44l2.28,6.43h-1.02L310.98,59.09z M310.73,58.34l-1.26-3.61   l-1.24,3.61H310.73z"/>
	<path class="st2" d="M318.39,53.96l-2.41,3.87v2.57h-0.99v-2.57l-2.34-3.87h1.14l1.17,1.93c0.09,0.15,0.23,0.38,0.41,0.71   l0.13,0.24h0.03l0.13-0.24c0.18-0.33,0.32-0.56,0.41-0.71l1.17-1.93H318.39z"/>
	<path class="st3" d="M339.86,39.96c0.61,0,1.16,0.44,1.16,1.13c0,0.68-0.55,1.13-1.16,1.13c-0.61,0-1.16-0.44-1.16-1.13   C338.7,40.4,339.25,39.96,339.86,39.96 M339.86,41.97c0.47,0,0.85-0.37,0.85-0.89c0-0.52-0.38-0.89-0.85-0.89   c-0.48,0-0.85,0.37-0.85,0.89C339.01,41.6,339.39,41.97,339.86,41.97 M340.45,41.27c-0.05,0.3-0.28,0.48-0.55,0.48   c-0.39,0-0.65-0.29-0.65-0.67c0-0.39,0.24-0.68,0.64-0.68c0.28,0,0.51,0.17,0.55,0.47h-0.24c-0.03-0.14-0.15-0.22-0.31-0.22   c-0.23,0-0.35,0.18-0.35,0.43c0,0.24,0.14,0.44,0.36,0.44c0.17,0,0.29-0.09,0.3-0.24H340.45z"/>
	<polygon class="st3" points="334.84,49.63 334.84,46.01 330.41,46.01 330.41,49.63 328.73,49.63 328.73,41.07 330.41,41.07    330.41,44.54 334.84,44.54 334.84,41.07 336.52,41.07 336.52,49.63  "/>
	<path class="st3" d="M318.91,49.69L318.91,49.69c-0.86,0-1.6-0.25-2.11-0.75c-0.52-0.5-0.78-1.22-0.78-2.07v-3.04   c-0.01-1.18,0.45-1.99,1.21-2.38c0.76-0.39,1.71-0.44,2.78-0.44h0.82c0.95,0,1.65,0.18,2.13,0.65c0.47,0.48,0.61,1.15,0.61,1.96   v0.59h-1.68v-0.34v-0.22c0-0.53-0.08-0.82-0.2-0.93c-0.11-0.12-0.38-0.23-1-0.23h-0.56c-0.76,0-1.32,0.03-1.69,0.13   c-0.37,0.11-0.51,0.23-0.62,0.46c-0.07,0.16-0.12,0.39-0.12,0.73v2.16c0,0.67,0.02,1.18,0.1,1.53c0.1,0.35,0.2,0.49,0.46,0.61   c0.18,0.08,0.45,0.12,0.83,0.12h1.18c0.58,0,1-0.03,1.26-0.11c0.26-0.09,0.32-0.15,0.4-0.32c0.04-0.12,0.08-0.29,0.08-0.55v-0.97   h1.68v1.08c0.01,0.97-0.39,1.67-1.05,1.98c-0.64,0.32-1.44,0.36-2.33,0.36H318.91"/>
	<polygon class="st3" points="304.56,49.63 304.56,41.07 310.87,41.07 310.87,42.55 306.24,42.55 306.24,44.54 310.67,44.54    310.67,45.96 306.24,45.96 306.24,48.15 310.87,48.15 310.87,49.63  "/>
	<polygon class="st3" points="295.36,49.63 295.36,42.55 292.52,42.55 292.52,41.07 299.87,41.07 299.87,42.55 297.04,42.55    297.04,49.28 297.04,49.63  "/>
	<polygon class="st3" points="283.58,49.63 283.58,46.11 280.06,41.07 282.05,41.07 284.46,44.5 286.87,41.07 288.9,41.07    285.26,46.11 285.26,49.63  "/>
	<polygon class="st3" points="271.06,49.63 271.06,41.07 272.74,41.07 272.74,48.15 277.19,48.15 277.19,49.63  "/>
	<path class="st3" d="M262.59,41.01c1.12,0.01,1.92,0.17,2.47,0.69c0.55,0.52,0.71,1.29,0.71,2.3v2.8c0,0.97-0.19,1.72-0.75,2.23   c-0.56,0.5-1.36,0.67-2.44,0.67h-1.18c-1.08,0-1.88-0.17-2.44-0.67c-0.56-0.5-0.75-1.26-0.75-2.23v-2.8c0-1.01,0.17-1.78,0.71-2.3   c0.55-0.51,1.35-0.67,2.48-0.69H262.59 M261.41,42.48c-0.72,0-1.09,0.1-1.24,0.26c-0.16,0.14-0.28,0.51-0.27,1.26v2.8   c0,0.75,0.14,1.06,0.32,1.19c0.17,0.15,0.56,0.22,1.19,0.22h1.18c0.63,0,1.02-0.07,1.2-0.22c0.17-0.13,0.32-0.44,0.32-1.19v-2.8   c0-0.75-0.11-1.11-0.27-1.26c-0.15-0.16-0.52-0.26-1.24-0.26H261.41"/>
	<path class="st3" d="M246.61,49.63v-8.21v-0.34h4.8c0.91-0.01,1.57,0.29,1.96,0.82c0.38,0.53,0.47,1.19,0.48,1.9   c0,0.36,0.01,1.02-0.31,1.63c-0.31,0.62-1.02,1.15-2.17,1.13h-3.07v3.06H246.61z M248.29,45.09h2.22h0.05   c0.48,0,0.86-0.01,1.09-0.07c0.23-0.07,0.31-0.13,0.41-0.35c0.06-0.15,0.1-0.4,0.1-0.75c0.01-0.74-0.1-1.09-0.21-1.18   c-0.09-0.11-0.37-0.19-0.98-0.18h-2.69V45.09z"/>
	<path class="st2" d="M216.59,23.96c-10.37,0-19.01,7.38-20.97,17.17h8.75c0.65-1.87,1.71-3.54,3.08-4.92   c2.35-2.35,5.56-3.78,9.14-3.79c3.58,0,6.79,1.44,9.14,3.79c2.35,2.35,3.78,5.56,3.79,9.14c0,3.58-1.44,6.79-3.79,9.14   c-2.35,2.35-5.56,3.78-9.14,3.78c-3.58,0-6.79-1.44-9.14-3.78c-1.36-1.37-2.42-3.02-3.06-4.87l-8.75,0v0v10.9   c0,9.2,7.96,8.65,7.96,8.65l0.01-6.83c3.6,2.76,8.11,4.4,12.99,4.4c11.81,0,21.39-9.58,21.39-21.39   C237.98,33.54,228.41,23.96,216.59,23.96"/>
</g>
</svg>