<svg width="211" height="72" viewBox="0 0 211 72" fill="none" xmlns="http://www.w3.org/2000/svg">
<g clip-path="url(#clip0_21598_10927)">
<path d="M161.979 45.8819C161.979 34.7195 170.509 27.0671 180.729 27.0671C189.47 27.0671 196.801 32.4028 197.999 40.4762C198.07 40.6869 197.858 40.9675 197.576 40.9675H189.822C189.258 40.9675 189.118 40.8272 189.047 40.6165C187.99 36.8959 184.606 34.6492 180.659 34.6492C175.09 34.6492 171.284 39.2829 171.284 45.8819C171.284 52.6216 175.231 57.3957 180.659 57.3957C184.536 57.3957 187.849 55.2893 189.047 51.358C189.118 51.1473 189.258 51.0769 189.47 51.0769H197.576C197.858 51.0769 198.07 51.2876 197.999 51.5686C196.448 59.993 188.977 64.9777 180.588 64.9777C170.227 64.9777 161.979 57.4657 161.979 45.8819Z" fill="#0A4D2B"/>
<path d="M149.486 14.151C149.486 13.9404 149.627 13.7297 149.839 13.7297H158.156C158.438 13.7297 158.579 13.9404 158.579 14.151V21.7331C158.579 21.9437 158.438 22.1543 158.156 22.1543H149.839C149.627 22.1543 149.486 21.9437 149.486 21.7331V14.151ZM149.557 28.3324C149.557 28.1217 149.698 27.911 149.909 27.911H158.086C158.368 27.911 158.509 28.1217 158.509 28.3324V63.8556C158.509 64.0662 158.368 64.2066 158.086 64.2066H149.909C149.698 64.2066 149.557 64.0662 149.557 63.8556V28.3324Z" fill="#0A4D2B"/>
<path d="M128.059 64.909C117.697 64.909 109.098 57.8183 109.098 45.7432C109.098 34.2295 117.979 26.9984 127.707 26.9984C137.575 26.9984 146.033 33.6678 146.033 46.5855V47.9895C146.033 48.2706 145.751 48.5512 145.399 48.5512H118.191C118.895 54.3079 123.125 57.8886 128.341 57.8886C131.654 57.8886 134.967 56.7653 136.658 53.7462C136.729 53.6059 136.87 53.5359 137.081 53.5359H145.117C145.399 53.5359 145.61 53.8166 145.54 54.0972C143.073 61.6796 135.46 64.909 128.059 64.909ZM127.565 34.0188C122.772 34.0188 118.755 37.0378 118.12 42.1625H136.729C136.306 37.2485 132.641 34.0188 127.565 34.0188Z" fill="#0A4D2B"/>
<path d="M87.2751 64.9777C76.6316 64.9777 68.1025 57.606 68.1025 45.8819C68.1025 34.4385 76.7725 27.0671 87.2751 27.0671C97.919 27.0671 106.448 34.2982 106.448 45.8819C106.448 57.4657 97.8484 64.9777 87.2751 64.9777ZM87.2751 57.3957C93.1257 57.3957 97.1435 52.8323 97.1435 45.8819C97.1435 39.2829 93.1257 34.6492 87.2751 34.6492C81.2836 34.6492 77.407 39.2125 77.407 45.8819C77.407 52.692 81.3543 57.3957 87.2751 57.3957Z" fill="#0A4D2B"/>
<path d="M49.0416 54.5196V54.4492V34.7921H43.3319C43.0501 34.7921 42.9092 34.5815 42.9092 34.3708V28.3334C42.9092 28.1228 43.0501 27.9121 43.3319 27.9121H49.0416V19.4876C49.0416 19.277 49.1824 19.0664 49.4646 19.0664H57.5706C57.7821 19.0664 57.9936 19.277 57.9936 19.4876V27.9121H65.9587C66.2405 27.9121 66.3814 28.1228 66.3814 28.3334V34.3708C66.3814 34.5815 66.2405 34.7921 65.9587 34.7921H57.9936V52.7646C57.9936 56.5556 59.1918 57.1873 62.0818 57.1873H65.9587C66.2405 57.1873 66.3814 57.3979 66.3814 57.6086V63.7866C66.3814 63.9973 66.2405 64.2076 66.029 64.2076C63.6327 64.278 62.0818 64.278 59.1918 64.278C52.9888 64.278 49.0416 62.4526 49.0416 54.5196Z" fill="#0A4D2B"/>
<path d="M32.3064 16.1877L8.41103 39.9868C8.19958 40.1975 7.84712 40.1275 7.70615 39.7765L6.29641 35.4938C6.29641 35.3535 6.29641 35.2132 6.43738 35.0728L13.4157 28.1224H1.50323C1.15077 28.1224 0.93932 27.7714 1.08029 27.4904L3.12442 23.4187C3.19494 23.2784 3.33591 23.2081 3.54736 23.2081H13.4157L4.95711 14.7836C4.74566 14.573 4.81614 14.1518 5.1686 14.0816L9.46835 12.6775C9.60932 12.6073 9.82081 12.6775 9.89129 12.7477L16.9401 19.7681V7.83336C16.9401 7.48236 17.2219 7.27172 17.5743 7.41216L21.5922 9.44807C21.7331 9.51827 21.8037 9.7289 21.8037 9.8693V19.6979L30.2625 11.3436C30.5443 11.0628 30.8967 11.2032 31.0376 11.484L32.377 15.7665C32.4473 15.9069 32.4473 16.0473 32.3064 16.1877ZM37.2406 23.2081C37.593 23.2081 37.8045 23.4891 37.6636 23.8401L35.6194 27.8418C35.5488 27.9821 35.3376 28.0521 35.1964 28.0521H25.3283L33.716 36.4768C33.9982 36.7575 33.9276 37.1085 33.5752 37.2492L29.2755 38.6532C29.1346 38.6532 28.9231 38.6532 28.8525 38.5129L21.8037 31.5625V43.4269C21.8037 43.7779 21.4513 43.9885 21.1695 43.8482L17.1517 41.8122C17.0104 41.7422 16.9401 41.6015 16.9401 41.3912V35.2132C16.9401 35.0728 16.9401 34.9321 17.0104 34.8622L28.6409 23.3484C28.7116 23.2081 28.8525 23.2081 28.9231 23.2081H37.2406Z" fill="#0A4D2B"/>
<path d="M204.042 59.4059H204.967C205.445 59.4059 205.672 59.1826 205.672 58.7981C205.672 58.4139 205.419 58.1646 204.967 58.1646H204.042V59.4059ZM204.042 60.263V61.9563H203.024V57.3335H205.219C206.216 57.3335 206.736 58.0088 206.736 58.7775C206.736 59.4528 206.33 59.8839 205.831 60.0657V60.0917C205.898 60.1801 205.944 60.2475 206.078 60.5433L206.869 61.9614H205.692L204.875 60.4499C204.808 60.2941 204.761 60.2681 204.581 60.2681H204.037L204.042 60.263ZM208.319 59.6761C208.319 57.7801 206.736 56.0662 204.787 56.0662C202.839 56.0662 201.255 57.7541 201.255 59.6761C201.255 61.5978 202.839 63.2651 204.787 63.2651C206.736 63.2651 208.319 61.6136 208.319 59.6761ZM200.258 59.6761C200.258 57.1466 202.273 55.1416 204.787 55.1416C207.301 55.1416 209.337 57.0582 209.337 59.6761C209.337 62.294 207.255 64.1846 204.787 64.1846C202.319 64.1846 200.258 62.1796 200.258 59.6761Z" fill="#0A4D2B"/>
</g>
<defs>
<clipPath id="clip0_21598_10927">
<rect width="209.855" height="58" fill="white" transform="translate(0 7)"/>
</clipPath>
</defs>
</svg>